<?xml version="1.0" standalone="no"?>
<!DOCTYPE svg PUBLIC "-//W3C//DTD SVG 20010904//EN"
 "http://www.w3.org/TR/2001/REC-SVG-20010904/DTD/svg10.dtd">
<svg version="1.0" xmlns="http://www.w3.org/2000/svg"
 width="602.000000pt" height="602.000000pt" viewBox="0 0 602.000000 602.000000"
 preserveAspectRatio="xMidYMid meet">
<metadata>
Created by potrace 1.11, written by Peter Selinger 2001-2013
</metadata>
<g transform="translate(0.000000,602.000000) scale(0.100000,-0.100000)"
fill="#000000" stroke="none">
<path d="M2829 6006 c-2 -2 -42 -7 -89 -10 -109 -9 -193 -20 -253 -32 -12 -2
-35 -7 -52 -10 -127 -22 -388 -99 -524 -153 -115 -46 -332 -152 -403 -197 -21
-13 -40 -24 -43 -24 -3 0 -11 -5 -18 -10 -7 -6 -50 -36 -97 -67 -482 -321
-868 -789 -1090 -1319 -23 -54 -45 -108 -50 -119 -26 -60 -110 -347 -124 -428
-3 -15 -7 -35 -10 -45 -8 -26 -36 -225 -44 -311 -13 -141 -7 -508 11 -641 23
-168 51 -313 81 -415 1 -5 8 -30 15 -55 22 -80 92 -271 133 -364 228 -521 616
-983 1095 -1302 61 -40 115 -74 118 -74 4 0 19 -8 33 -19 73 -51 358 -183 517
-238 205 -71 470 -128 703 -151 148 -14 593 -5 662 13 8 2 35 7 60 10 178 24
554 125 648 174 9 5 53 24 97 42 221 92 483 253 705 433 73 59 279 260 351
341 279 317 502 728 624 1150 22 77 52 203 61 255 2 14 6 34 9 46 2 11 7 45
10 75 4 30 8 60 11 67 25 78 25 600 -1 767 -49 321 -108 540 -212 785 -270
635 -741 1151 -1350 1478 -95 51 -167 83 -368 168 -80 33 -335 104 -460 129
-32 6 -200 31 -275 40 -52 7 -475 17 -481 11z"/>
</g>
</svg>
